<svg width="490.05" height="490.05" xmlns="http://www.w3.org/2000/svg">

 <g>
  <title>background</title>
  <rect fill="none" id="canvas_background" height="402" width="582" y="-1" x="-1"/>
 </g>
 <g>
  <title>Layer 1</title>
  <g id="svg_1">
   <g id="svg_34">
    <path id="svg_3" fill="#2C2F33" d="m256.15,477.85l24.5,-10.1c13.1,-5.4 19.3,-20.5 13.9,-33.5l-6.3,-15.2c12.3,-9.1 23,-19.9 32.2,-32.2l15.2,6.3c6.3,2.6 13.3,2.6 19.6,0c6.3,-2.6 11.3,-7.6 13.9,-13.9l10.2,-24.5c5.4,-13.1 -0.8,-28.1 -13.9,-33.5l-22.5,-9.3c-5.1,-2.1 -10.8,0.3 -12.9,5.4s0.3,10.8 5.4,12.9l22.5,9.3c3,1.2 4.4,4.7 3.2,7.7l-10.2,24.5c-0.6,1.4 -1.7,2.6 -3.2,3.2c-1.4,0.6 -3,0.6 -4.5,0l-22.5,-9.3c-4.4,-1.8 -9.4,-0.3 -12,3.6c-10.1,15.2 -22.9,28 -38.1,38.1c-3.9,2.6 -5.5,7.7 -3.7,12l9.3,22.5c1.2,3 -0.2,6.4 -3.2,7.7l-24.5,10.1c-1.4,0.6 -3,0.6 -4.5,0c-1.4,-0.6 -2.6,-1.7 -3.2,-3.2l-9.3,-22.5c-1.8,-4.4 -6.4,-6.9 -11.1,-5.9c-17.8,3.6 -36,3.5 -53.8,0c-4.6,-0.9 -9.3,1.6 -11.1,5.9l-9.3,22.5c-1.2,3 -4.7,4.4 -7.7,3.2l-24.5,-10.2c-1.4,-0.6 -2.6,-1.7 -3.2,-3.2c-0.6,-1.4 -0.6,-3 0,-4.5l9.3,-22.5c1.8,-4.4 0.3,-9.4 -3.6,-12c-15.2,-10.1 -28,-22.9 -38.1,-38.1c-2.6,-3.9 -7.7,-5.5 -12,-3.7l-22.5,9.3c-1.5,0.6 -3,0.6 -4.5,0c-1.4,-0.6 -2.6,-1.7 -3.2,-3.2l-10.1,-24.5c-0.6,-1.4 -0.6,-3 0,-4.5c0.6,-1.4 1.7,-2.6 3.2,-3.2l22.5,-9.3c4.4,-1.8 6.8,-6.4 5.9,-11.1c-3.6,-17.8 -3.5,-36 0,-53.8c0.9,-4.6 -1.6,-9.3 -5.9,-11.1l-22.5,-9.3c-3,-1.2 -4.4,-4.7 -3.2,-7.7l10.2,-24.5c1.2,-3 4.7,-4.4 7.7,-3.2l22.5,9.3c4.4,1.8 9.4,0.3 12,-3.6c10.1,-15.2 22.9,-28 38.1,-38.1c3.9,-2.6 5.5,-7.7 3.7,-12l-9.3,-22.5c-0.6,-1.4 -0.6,-3 0,-4.5c0.6,-1.4 1.7,-2.6 3.2,-3.2l24.5,-10.1c1.4,-0.6 3,-0.6 4.5,0c1.4,0.6 2.6,1.7 3.2,3.2l9.3,22.5c2.1,5.1 7.9,7.5 12.9,5.4c5.1,-2.1 7.5,-7.9 5.4,-12.9l-9.3,-22.5c-2.6,-6.3 -7.6,-11.3 -13.9,-13.9c-3.2,-1.3 -6.5,-2 -9.8,-2s-6.7,0.7 -9.8,2l-24.5,10.1c-6.3,2.6 -11.3,7.6 -13.9,13.9c-2.6,6.3 -2.6,13.3 0,19.6l6.3,15.2c-12.3,9.1 -23,19.9 -32.2,32.2l-15.2,-6.3c-13.1,-5.4 -28.1,0.8 -33.5,13.9l-10.3,24.5c-5.4,13.1 0.8,28.1 13.9,33.5l15.2,6.3c-2.2,15.1 -2.2,30.4 0,45.5l-15.2,6.3c-6.3,2.6 -11.3,7.6 -13.9,13.9s-2.6,13.3 0,19.6l10.1,24.5c2.6,6.3 7.6,11.3 13.9,13.9s13.3,2.6 19.6,0l15.2,-6.3c9.1,12.3 19.9,23 32.2,32.2l-6.3,15.2c-2.6,6.3 -2.6,13.3 0,19.6c2.6,6.3 7.6,11.3 13.9,13.9l24.5,10.2c13.1,5.4 28.1,-0.8 33.5,-13.9l6.3,-15.2c15.1,2.2 30.4,2.2 45.5,0l6.3,15.2c2.6,6.3 7.6,11.3 13.9,13.9c6.3,2.6 13.3,2.6 19.6,0z"/>
    <path id="svg_4" fill="#2C2F33" d="m113.15,292.75c0.3,44.2 36.4,79.9 80.5,79.9c0.2,0 0.4,0 0.6,0c21.5,-0.2 41.7,-8.7 56.8,-24c15.1,-15.3 23.3,-35.6 23.2,-57.1c0,-5.4 -4.5,-9.8 -9.9,-9.8l-0.1,0c-5.5,0 -9.9,4.5 -9.8,10c0.1,16.2 -6.1,31.5 -17.5,43.1s-26.6,18 -42.8,18.1c-0.1,0 -0.3,0 -0.4,0c-33.3,0 -60.5,-27 -60.7,-60.3c-0.2,-33.5 26.8,-60.9 60.3,-61.2c5.5,0 9.9,-4.5 9.8,-10c0,-5.4 -4.5,-9.8 -9.9,-9.8c0,0 0,0 -0.1,0c-44.5,0.3 -80.3,36.7 -80,81.1z"/>
    <g stroke="null" transform="rotate(15 324.0793151855466,159.81692504882804) " id="svg_33">
     <g stroke="null" transform="matrix(0.550876854236206,0,0,0.550876854236206,-3210.7571402652375,-3215.9405352575895) " id="svg_28">
      <path stroke="null" id="svg_29" d="m6662.045329,6128.020938c0,-32.5 -40.7,-63.3 -103.1,-82.4c14.4,-63.6 8,-114.2 -20.2,-130.4c-6.5,-3.8 -14.1,-5.6 -22.4,-5.6l0,22.3c4.6,0 8.3,0.9 11.4,2.6c13.6,7.8 19.5,37.5 14.9,75.7c-1.1,9.4 -2.9,19.3 -5.1,29.4c-19.6,-4.8 -41,-8.5 -63.5,-10.9c-13.5,-18.5 -27.5,-35.3 -41.6,-50c32.6,-30.3 63.2,-46.9 84,-46.9l0,-22.3c0,0 0,0 0,0c-27.5,0 -63.5,19.6 -99.9,53.6c-36.4,-33.8 -72.4,-53.2 -99.9,-53.2l0,22.3c20.7,0 51.4,16.5 84,46.6c-14,14.7 -28,31.4 -41.3,49.9c-22.6,2.4 -44,6.1 -63.6,11c-2.3,-10 -4,-19.7 -5.2,-29c-4.7,-38.2 1.1,-67.9 14.6,-75.8c3,-1.8 6.9,-2.6 11.5,-2.6l0,-22.3c0,0 0,0 0,0c-8.4,0 -16,1.8 -22.6,5.6c-28.1,16.2 -34.4,66.7 -19.9,130.1c-62.2,19.2 -102.7,49.9 -102.7,82.3c0,32.5 40.7,63.3 103.1,82.4c-14.4,63.6 -8,114.2 20.2,130.4c6.5,3.8 14.1,5.6 22.5,5.6c27.5,0 63.5,-19.6 99.9,-53.6c36.4,33.8 72.4,53.2 99.9,53.2c8.4,0 16,-1.8 22.6,-5.6c28.1,-16.2 34.4,-66.7 19.9,-130.1c62,-19.1 102.5,-49.9 102.5,-82.3zm-130.2,-66.7c-3.7,12.9 -8.3,26.2 -13.5,39.5c-4.1,-8 -8.4,-16 -13.1,-24c-4.6,-8 -9.5,-15.8 -14.4,-23.4c14.2,2.1 27.9,4.7 41,7.9zm-45.8,106.5c-7.8,13.5 -15.8,26.3 -24.1,38.2c-14.9,1.3 -30,2 -45.2,2c-15.1,0 -30.2,-0.7 -45,-1.9c-8.3,-11.9 -16.4,-24.6 -24.2,-38c-7.6,-13.1 -14.5,-26.4 -20.8,-39.8c6.2,-13.4 13.2,-26.8 20.7,-39.9c7.8,-13.5 15.8,-26.3 24.1,-38.2c14.9,-1.3 30,-2 45.2,-2c15.1,0 30.2,0.7 45,1.9c8.3,11.9 16.4,24.6 24.2,38c7.6,13.1 14.5,26.4 20.8,39.8c-6.3,13.4 -13.2,26.8 -20.7,39.9zm32.3,-13c5.4,13.4 10,26.8 13.8,39.8c-13.1,3.2 -26.9,5.9 -41.2,8c4.9,-7.7 9.8,-15.6 14.4,-23.7c4.6,-8 8.9,-16.1 13,-24.1zm-101.4,106.7c-9.3,-9.6 -18.6,-20.3 -27.8,-32c9,0.4 18.2,0.7 27.5,0.7c9.4,0 18.7,-0.2 27.8,-0.7c-9,11.7 -18.3,22.4 -27.5,32zm-74.4,-58.9c-14.2,-2.1 -27.9,-4.7 -41,-7.9c3.7,-12.9 8.3,-26.2 13.5,-39.5c4.1,8 8.4,16 13.1,24c4.7,8 9.5,15.8 14.4,23.4zm73.9,-208.1c9.3,9.6 18.6,20.3 27.8,32c-9,-0.4 -18.2,-0.7 -27.5,-0.7c-9.4,0 -18.7,0.2 -27.8,0.7c9,-11.7 18.3,-22.4 27.5,-32zm-74,58.9c-4.9,7.7 -9.8,15.6 -14.4,23.7c-4.6,8 -8.9,16 -13,24c-5.4,-13.4 -10,-26.8 -13.8,-39.8c13.1,-3.1 26.9,-5.8 41.2,-7.9zm-90.5,125.2c-35.4,-15.1 -58.3,-34.9 -58.3,-50.6c0,-15.7 22.9,-35.6 58.3,-50.6c8.6,-3.7 18,-7 27.7,-10.1c5.7,19.6 13.2,40 22.5,60.9c-9.2,20.8 -16.6,41.1 -22.2,60.6c-9.9,-3.1 -19.3,-6.5 -28,-10.2zm53.8,142.9c-13.6,-7.8 -19.5,-37.5 -14.9,-75.7c1.1,-9.4 2.9,-19.3 5.1,-29.4c19.6,4.8 41,8.5 63.5,10.9c13.5,18.5 27.5,35.3 41.6,50c-32.6,30.3 -63.2,46.9 -84,46.9c-4.5,-0.1 -8.3,-1 -11.3,-2.7zm237.2,-76.2c4.7,38.2 -1.1,67.9 -14.6,75.8c-3,1.8 -6.9,2.6 -11.5,2.6c-20.7,0 -51.4,-16.5 -84,-46.6c14,-14.7 28,-31.4 41.3,-49.9c22.6,-2.4 44,-6.1 63.6,-11c2.3,10.1 4.1,19.8 5.2,29.1zm38.5,-66.7c-8.6,3.7 -18,7 -27.7,10.1c-5.7,-19.6 -13.2,-40 -22.5,-60.9c9.2,-20.8 16.6,-41.1 22.2,-60.6c9.9,3.1 19.3,6.5 28.1,10.2c35.4,15.1 58.3,34.9 58.3,50.6c-0.1,15.7 -23,35.6 -58.4,50.6z" fill="#61DAFB"/>
      <polygon stroke="null" id="svg_30" points="6316.545535087585,5909.921545982361 6316.545535087585,5909.921545982361 6316.545535087585,5909.921545982361 " fill="#61DAFB"/>
      <circle stroke="null" id="svg_31" r="45.699951" cy="6128.020938" cx="6416.645329" fill="#61DAFB"/>
      <polygon stroke="null" id="svg_32" points="6516.245730400085,5909.621741294861 6516.245730400085,5909.621741294861 6516.245730400085,5909.621741294861 " fill="#61DAFB"/>
     </g>
    </g>
   </g>
  </g>
  <g id="svg_7"/>
  <g id="svg_8"/>
  <g id="svg_9"/>
  <g id="svg_10"/>
  <g id="svg_11"/>
  <g id="svg_12"/>
  <g id="svg_13"/>
  <g id="svg_14"/>
  <g id="svg_15"/>
  <g id="svg_16"/>
  <g id="svg_17"/>
  <g id="svg_18"/>
  <g id="svg_19"/>
  <g id="svg_20"/>
  <g id="svg_21"/>
 </g>
</svg>